<svg width="40" height="40" viewBox="0 0 40 40" fill="none" xmlns="http://www.w3.org/2000/svg">
<path d="M19.34 5.37009C12.36 5.94009 6.81002 11.5601 6.35002 18.5601L5.31002 16.5201L4.34002 18.4901C4.84002 10.3801 11.33 3.87009 19.43 3.34009L21.4 4.31009L19.35 5.37009H19.34ZM35.68 22.5201L34.65 20.4901C34.43 23.6401 33.19 26.5201 31.24 28.7701L26.9 21.1301H27.86C30.23 21.1301 32.16 19.2001 32.16 16.8301C32.16 14.4601 30.23 12.5301 27.86 12.5301H22.2C21.64 12.5301 21.19 12.9801 21.19 13.5401V22.9201L15.48 13.0401C15.3 12.7301 14.97 12.5401 14.61 12.5401C14.25 12.5401 13.92 12.7301 13.74 13.0401L7.17002 24.4201C6.73002 23.2401 6.46002 21.9901 6.35002 20.6901L5.30002 18.6401L4.33002 20.6101C4.88002 28.6401 11.28 35.0701 19.3 35.6501L17.34 34.6901L19.38 33.6501C14.61 33.2801 10.5 30.5601 8.21002 26.6401L14.61 15.5601L21.32 27.1801C21.55 27.5701 22.01 27.7701 22.45 27.6501C22.89 27.5301 23.2 27.1301 23.2 26.6801V14.5501H27.85C29.11 14.5501 30.13 15.5701 30.13 16.8301C30.13 18.0901 29.11 19.1101 27.85 19.1101H25.16C24.8 19.1101 24.47 19.3001 24.29 19.6101C24.11 19.9201 24.11 20.3001 24.29 20.6101L29.75 30.2301C27.51 32.1701 24.65 33.4101 21.51 33.6301L19.47 34.6701L21.44 35.6401C29.58 35.1601 36.12 28.6501 36.64 20.5201L35.66 22.5001L35.68 22.5201ZM35.68 20.4001L36.65 18.4301C36.12 10.3401 29.63 3.87009 21.54 3.35009L23.51 4.32009L21.47 5.36009C28.46 5.84009 34.06 11.3901 34.63 18.3601L35.68 20.4101V20.4001Z" fill="url(#paint0_linear_7_844)"/>
<defs>
<linearGradient id="paint0_linear_7_844" x1="20.5" y1="3.34009" x2="20.5" y2="35.6701" gradientUnits="userSpaceOnUse">
<stop offset="0.32" stop-color="white"/>
<stop offset="1" stop-color="#E4E5E5"/>
</linearGradient>
</defs>
</svg>
