<svg width="64" height="64" viewBox="0 0 64 64" fill="none"
    xmlns="http://www.w3.org/2000/svg">
    <g clip-path="url(#clip0_10_1569)">
        <path d="M38 30.6701L54 34.8601V19.1401L38 23.3301V30.6701Z" fill="url(#paint0_linear_10_1569)"/>
        <path opacity="0.2" d="M39 24.4801L54 20.5501V19.1401L38 23.3301V30.6701L39 30.9301V24.4801Z" fill="white"/>
        <path d="M44 16H10V38H44V16Z" fill="url(#paint1_linear_10_1569)"/>
        <path opacity="0.2" d="M11 17H44V16H10V38H11V17Z" fill="white"/>
        <path d="M33 52H28V28H22V24L33 23V52Z" fill="url(#paint2_linear_10_1569)"/>
        <path opacity="0.2" d="M23 28H22V24L33 23V24.09L23 25V28ZM29 29H28V52H29V29Z" fill="white"/>
    </g>
    <defs>
        <linearGradient id="paint0_linear_10_1569" x1="46" y1="22.3101" x2="46" y2="32.0001" gradientUnits="userSpaceOnUse">
            <stop offset="0.32" stop-color="#F7F6F2"/>
            <stop offset="1" stop-color="#BFC0C1"/>
        </linearGradient>
        <linearGradient id="paint1_linear_10_1569" x1="27" y1="20.43" x2="27" y2="33.99" gradientUnits="userSpaceOnUse">
            <stop offset="0.32" stop-color="#F7F6F2"/>
            <stop offset="1" stop-color="#BFC0C1"/>
        </linearGradient>
        <linearGradient id="paint2_linear_10_1569" x1="27.5" y1="52" x2="27.5" y2="23" gradientUnits="userSpaceOnUse">
            <stop stop-color="#9D2026"/>
            <stop offset="1" stop-color="#CC2026"/>
        </linearGradient>
        <clipPath id="clip0_10_1569">
            <rect width="64" height="64" fill="white"/>
        </clipPath>
    </defs>
</svg>
