<svg width="64" height="64" viewBox="0 0 64 64" fill="none" xmlns="http://www.w3.org/2000/svg">
<g clip-path="url(#clip0_10_1583)">
<path opacity="0.2" d="M23.03 31.9998H22.01C21.94 29.5598 22.75 27.2398 24.43 25.5398C26.11 23.8498 28.38 23.0098 31.23 23.0098C34.08 23.0098 36.1 23.7298 37.64 25.1998C37.86 25.4098 38.05 25.6198 38.24 25.8498C36.74 24.6198 34.74 23.9998 32.23 23.9998C29.38 23.9998 27.11 24.8398 25.43 26.5298C23.98 27.9898 23.18 29.9198 23.04 31.9998H23.03ZM29.4 48.9898H41V47.9998H30.28L29.4 48.9898ZM23.01 49.7098L32.31 39.3798C33.76 37.6598 34.77 36.2498 35.33 35.1398C35.89 34.0298 36.17 32.9598 36.17 31.9398C36.17 30.7198 35.83 29.7298 35.15 28.9598C34.95 28.7298 34.71 28.5498 34.45 28.3898C34.92 29.0898 35.17 29.9398 35.17 30.9498C35.17 31.9598 34.89 33.0398 34.33 34.1498C33.77 35.2598 32.76 36.6798 31.31 38.3898L22.01 48.7198V51.9998H23.01V49.7098Z" fill="white"/>
<path d="M38 30.6701L54 34.8601V19.1401L38 23.3301V30.6701Z" fill="url(#paint0_linear_10_1583)"/>
<path opacity="0.2" d="M39 24.4801L54 20.5501V19.1401L38 23.3301V30.6701L39 30.9301V24.4801Z" fill="white"/>
<path d="M44 16H10V38H44V16Z" fill="url(#paint1_linear_10_1583)"/>
<path opacity="0.2" d="M11 17H44V16H10V38H11V17Z" fill="white"/>
<path d="M40.99 51.9998H22V48.7198L31.3 38.3898C32.75 36.6698 33.76 35.2598 34.32 34.1498C34.88 33.0398 35.16 31.9698 35.16 30.9498C35.16 29.7298 34.82 28.7398 34.14 27.9798C33.46 27.2098 32.48 26.8298 31.21 26.8298C29.73 26.8298 28.6 27.3098 27.81 28.2598C27.02 29.2198 26.63 30.5398 26.63 31.9898H21.98C21.91 29.5498 22.72 27.2398 24.4 25.5398C26.08 23.8498 28.35 23.0098 31.2 23.0098C34.05 23.0098 36.07 23.7298 37.61 25.1998C39.15 26.6698 39.92 28.5898 39.92 30.9698C39.92 32.5798 39.49 34.0898 38.63 35.5098C37.77 36.9198 36.36 38.8098 34.4 41.1798L28.37 47.9998H40.97V51.9998H40.99Z" fill="url(#paint2_linear_10_1583)"/>
</g>
<defs>
<linearGradient id="paint0_linear_10_1583" x1="46" y1="22.3101" x2="46" y2="32.0001" gradientUnits="userSpaceOnUse">
<stop offset="0.32" stop-color="#F7F6F2"/>
<stop offset="1" stop-color="#BFC0C1"/>
</linearGradient>
<linearGradient id="paint1_linear_10_1583" x1="27" y1="20.43" x2="27" y2="33.99" gradientUnits="userSpaceOnUse">
<stop offset="0.32" stop-color="#F7F6F2"/>
<stop offset="1" stop-color="#BFC0C1"/>
</linearGradient>
<linearGradient id="paint2_linear_10_1583" x1="31.5" y1="51.9998" x2="31.5" y2="23.0098" gradientUnits="userSpaceOnUse">
<stop stop-color="#9D2026"/>
<stop offset="1" stop-color="#CC2026"/>
</linearGradient>
<clipPath id="clip0_10_1583">
<rect width="64" height="64" fill="white"/>
</clipPath>
</defs>
</svg>
