<svg width="64" height="64" viewBox="0 0 64 64" fill="none"
    xmlns="http://www.w3.org/2000/svg">
    <path d="M22.1156 49.1502H38.634V35.7702L39.3767 35.2551C42.5989 33.0391 46.3481 30.296 47.4741 29.2539C47.2825 28.6669 46.7315 27.5649 46.3362 26.7983C45.2341 24.6182 43.9764 22.1387 44.1681 20.0903C44.2998 18.6888 44.9227 16.9041 45.5096 15.1791C45.7612 14.4604 46.0846 13.5141 46.2883 12.7834C41.6646 12.7834 28.1528 12.7834 23.2776 12.7834V17.2993H19.8757V26.5228C19.8637 26.8462 19.5522 32.4521 16.0186 38.106C18.8814 43.652 21.1454 47.5331 22.1037 49.1382L22.1156 49.1502Z" fill="url(#paint0_linear_10_555)"/>
    <path d="M41.0417 52.1688H20.5465L20.0673 51.3902C19.9475 51.2105 17.2284 46.7785 13.4192 39.2799L13 38.4654L13.5151 37.6987C16.7612 32.9193 17.0607 27.8285 17.0727 27.7805V16.0536H20.235V11.8372H21.8761C21.8761 11.8372 44.6712 11.8372 46.2523 11.8372C46.9231 11.8372 47.534 12.1366 47.9173 12.6517C48.7918 13.8256 48.2168 15.5026 47.2705 18.2816C46.8033 19.6471 46.2643 21.2043 46.1804 22.1506C46.0846 23.1808 47.1148 25.2291 47.8694 26.7264C49.0074 29.0023 49.8459 30.6434 48.9475 31.9491C48.1809 33.0631 43.9405 36.1296 41.0536 38.1419V52.1927L41.0417 52.1688ZM22.0797 48.132H37.2085V36.0218L39.2209 35.0156C42.2156 32.9433 44.8987 31.3621 45.9529 30.3919C45.7732 29.8408 45.2581 28.8107 44.8987 28.092C43.8686 26.0556 42.7067 23.7438 42.8864 21.8272C43.0061 20.5216 43.5811 18.8566 44.1321 17.2395C44.3597 16.5687 44.2639 15.838 44.2639 15.838C44.2639 15.838 28.608 15.838 24.0921 15.838V19.8747H21.0615V30.9668C21.0615 30.9668 20.247 33.4943 16.7732 38.645C19.4325 43.8317 21.1813 46.6107 22.0797 48.1081V48.132ZM37.2085 20.8929H35.1962V31.985H37.2085V20.8929ZM34.178 20.8929H32.1656V43.0891H34.178V20.8929ZM28.1288 23.9235H26.1165V43.0891H28.1288V23.9235ZM31.1594 20.8929H29.147V43.0891H31.1594V20.8929Z" fill="url(#paint1_linear_10_555)"/>
    <g opacity="0.2">
        <path d="M31.1594 43.089V22.9172V20.9048H29.135V25.9477H30.1532V43.089H31.1594Z" fill="white"/>
        <path d="M26.1165 43.0892H28.1288V25.948V23.9236H26.1165V43.0892Z" fill="white"/>
        <path d="M15.4316 41.3043L15.0124 40.4897L15.5275 39.7231C18.7736 34.9437 19.0731 29.8528 19.0851 29.8049V18.078H22.2474V13.8615H23.8885C23.8885 13.8615 46.6835 13.8615 48.2647 13.8615C48.2887 13.8615 48.3126 13.8615 48.3366 13.8615C48.3006 13.4063 48.1809 12.9991 47.9293 12.6517C47.546 12.1366 46.9351 11.8372 46.2643 11.8372C44.6831 11.8372 21.888 11.8372 21.888 11.8372H20.247V16.0536H17.0847V27.7805C17.0847 27.7805 16.7852 32.9313 13.539 37.6987L13.024 38.4654L13.4432 39.2799C17.2524 46.7784 19.9835 51.2105 20.0913 51.3902L20.5704 52.1688H21.361C20.2829 50.348 18.1388 46.5988 15.4556 41.2923L15.4316 41.3043Z" fill="white"/>
        <path d="M34.178 43.089V22.9172V20.9048H32.1656V22.9172H33.1718V43.089H34.178Z" fill="white"/>
        <path d="M37.2085 31.9969V22.9172V20.9048H35.1962V22.9172H36.2024V31.9969H37.2085Z" fill="white"/>
    </g>
    <defs>
        <linearGradient id="paint0_linear_10_555" x1="31.7464" y1="24.8578" x2="31.7464" y2="47.1498" gradientUnits="userSpaceOnUse">
            <stop offset="0.32" stop-color="#F7F6F2"/>
            <stop offset="1" stop-color="#BFC0C1"/>
        </linearGradient>
        <linearGradient id="paint1_linear_10_555" x1="31.1594" y1="50.4798" x2="31.1594" y2="18.7008" gradientUnits="userSpaceOnUse">
            <stop stop-color="#9D2026"/>
            <stop offset="1" stop-color="#CC2026"/>
        </linearGradient>
    </defs>
</svg>
