<svg width="64" height="64" viewBox="0 0 64 64" fill="none" xmlns="http://www.w3.org/2000/svg">
<path d="M55.31 27.25H15.38V17.75H8.26001V35.56H49.82V45.06H56.94V29.11C56.94 28.22 56.21 27.25 55.32 27.25H55.31Z" fill="url(#paint0_linear_10_1452)"/>
<g opacity="0.2">
<path d="M9.44 18.94H15.38V17.75H8.25V35.56H9.44V18.94Z" fill="white"/>
<path d="M16.5601 28.44H56.5001C56.6101 28.44 56.7201 28.46 56.8201 28.48C56.5801 27.82 56.0001 27.25 55.3101 27.25H16.5601V28.44Z" fill="white"/>
</g>
<path d="M42.1201 38.43C41.1701 33.97 37.1601 30.73 32.6001 30.73C27.2301 30.73 22.8601 35.1 22.8601 40.47C22.8601 42.21 23.3301 43.92 24.2101 45.41C25.9601 48.37 29.1701 50.21 32.6001 50.21C37.9701 50.21 42.3401 45.85 42.3401 40.47C42.3401 39.79 42.2701 39.1 42.1301 38.43H42.1201ZM32.6001 45.34C30.8901 45.34 29.2801 44.42 28.4001 42.94C27.9601 42.19 27.7301 41.34 27.7301 40.47C27.7301 37.79 29.9101 35.6 32.6001 35.6C34.8801 35.6 36.8801 37.22 37.3601 39.45C37.4301 39.78 37.4701 40.13 37.4701 40.47C37.4701 43.16 35.2901 45.34 32.6001 45.34Z" fill="black"/>
<path d="M34.22 40.4701C34.22 41.3701 33.49 42.0901 32.6 42.0901C31.71 42.0901 30.98 41.3601 30.98 40.4701C30.98 39.5801 31.71 38.8501 32.6 38.8501C33.49 38.8501 34.22 39.5801 34.22 40.4701Z" fill="url(#paint1_linear_10_1452)"/>
<defs>
<linearGradient id="paint0_linear_10_1452" x1="32.59" y1="45.06" x2="32.59" y2="17.75" gradientUnits="userSpaceOnUse">
<stop stop-color="#9D2026"/>
<stop offset="1" stop-color="#CC2026"/>
</linearGradient>
<linearGradient id="paint1_linear_10_1452" x1="32.59" y1="38.8501" x2="32.59" y2="42.0901" gradientUnits="userSpaceOnUse">
<stop offset="0.32" stop-color="#F7F6F2"/>
<stop offset="1" stop-color="#BFC0C1"/>
</linearGradient>
</defs>
</svg>
