<svg width="40" height="40" viewBox="0 0 40 40" fill="none"
    xmlns="http://www.w3.org/2000/svg">
    <g clip-path="url(#clip0_7_820)">
        <path d="M20 6C12.27 6 6 12.27 6 20C6 27.73 12.27 34 20 34C27.73 34 34 27.73 34 20C34 12.27 27.73 6 20 6ZM17.94 9.05C17.94 9.2 17.85 9.4 17.75 9.51L16.53 10.91C16.43 11.01 16.42 13.95 15.19 15C14.98 15.17 14.26 15.53 14.26 15.53C14.16 15.63 14.07 15.84 14.07 15.99V17.06C14.07 17.21 13.98 17.41 13.88 17.52L12.23 18.42C12.13 18.52 11.92 18.61 11.77 18.61H10.69C10.54 18.61 10.33 18.52 10.23 18.42L10 18.2C10.07 19.15 10.23 19.93 10.33 20.17C10.37 20.15 10.41 20.13 10.45 20.13H11.26C11.41 20.13 11.61 20.35 11.72 20.45L14.4 22.87C14.5 22.98 15.03 22.96 15.18 22.96L15.83 23.18C15.98 23.18 16.1 23.3 16.1 23.45V25.99C16.09 26.14 16 26.34 15.9 26.45L15.38 27.27C15.28 27.37 15.03 27.72 15.03 27.86V28.83C15.03 28.98 14.94 29.18 14.84 29.29L13.49 30.24C12.03 29.3 10.94 28.25 9.97 26.85L10.2 26.25C10.2 26.1 10.13 25.9 10.02 25.79L9.26 24.81C9.15 24.7 9.02 24.13 8.93 23.99L8.88 21.8C8.97 21.65 9.13 21.45 9.23 21.34L9.69 20.94C9.06 19.93 8.1 17.51 8.1 17.51C9.13 12.51 13.03 8.73 17.94 8.02V9.06V9.05ZM28.37 20.37L30.46 21.31C30.57 21.42 30.66 21.64 30.66 21.8V23.31C30.66 23.47 30.57 23.69 30.46 23.8L28.2 24.56C28.09 24.67 28 24.89 28 25.05V29C26.75 30.29 27.4 29.6 25.83 30.63L24.08 29.58C23.97 29.47 23.88 29.25 23.88 29.09L23.95 25.37C23.95 25.21 23.86 24.99 23.75 24.88L23.38 24.08C23.27 23.97 23.05 23.88 22.89 23.88L21.17 23.56C20.82 23.56 19.77 23.44 19.77 22.22V20.72C19.77 20.56 19.85 20.34 19.96 20.23L20.96 19.08C21.07 18.97 21.29 18.88 21.44 18.88H24.29C24.45 18.88 24.45 18.4 24.78 18.11L26.09 17.43C26.2 17.32 26.76 16.86 26.92 16.86H27.42C27.58 16.86 27.7 16.73 27.7 16.57V15.24C27.7 15.08 27.67 14.83 27.51 14.83H27.01C26.86 14.83 26.29 15.29 26.18 15.4L24.67 16.92C24.56 17.03 24.48 17.11 24.33 17.11H21.26C21.1 17.11 20.98 16.97 20.96 16.81V15.59C20.98 15.43 21.07 15.21 21.18 15.1L22.06 13.94C22.17 13.83 22.39 13.74 22.55 13.74L23.33 13.7C23.48 13.7 23.71 13.47 23.87 13.15C23.94 13.01 23.93 10.23 23.93 10.23C23.93 10.07 24.06 9.94 24.22 9.94L27.27 9.96C29.32 11.67 30.91 14.31 31.58 16.72C31.8 17.57 31.98 18.6 32 19.46L31.02 18.62C30.91 18.51 30.69 18.41 30.54 18.42L28.44 18.4C28.29 18.4 28.16 18.53 28.16 18.69L28.19 19.89C28.19 20.05 28.28 20.27 28.39 20.38L28.37 20.37Z" fill="white"/>
        <path d="M20 6C12.27 6 6 12.27 6 20C6 27.73 12.27 34 20 34C27.73 34 34 27.73 34 20C34 12.27 27.73 6 20 6ZM20 32C13.37 32 8 26.63 8 20C8 13.37 13.37 8 20 8C26.63 8 32 13.37 32 20C32 26.63 26.63 32 20 32Z" fill="white"/>
    </g>
    <defs>
        <clipPath id="clip0_7_820">
            <rect width="40" height="40" fill="white"/>
        </clipPath>
    </defs>
</svg>
