<svg width="64" height="64" viewBox="0 0 64 64" fill="none"
    xmlns="http://www.w3.org/2000/svg">
    <path d="M41.59 32C41.59 33.11 40.69 34.01 39.58 34.01H24.42C23.31 34.01 22.41 33.11 22.41 32C22.41 30.89 23.31 29.99 24.42 29.99H39.58C40.69 29.99 41.59 30.89 41.59 32ZM20.13 36.05C17.9 36.05 16.08 34.24 16.08 32C16.08 29.77 17.9 27.95 20.13 27.95H30.87C29.51 25.72 27.04 24.22 24.23 24.22H20.14C15.85 24.22 12.36 27.7 12.36 32C12.36 36.29 15.84 39.78 20.14 39.78H24.23C27.04 39.78 29.51 38.28 30.87 36.05H20.13ZM43.86 24.23H39.77C36.96 24.23 34.49 25.72 33.13 27.96H43.87C46.1 27.96 47.92 29.78 47.92 32.01C47.92 34.24 46.1 36.06 43.87 36.06H33.13C34.49 38.3 36.96 39.79 39.77 39.79H43.86C48.15 39.79 51.64 36.31 51.64 32.01C51.64 27.72 48.16 24.23 43.86 24.23Z" fill="white"/>
</svg>
