<svg width="48" height="48" viewBox="0 0 48 48" fill="none" xmlns="http://www.w3.org/2000/svg">
<path d="M33.59 24C33.59 25.11 32.69 26.01 31.58 26.01H16.42C15.31 26.01 14.41 25.11 14.41 24C14.41 22.89 15.31 21.99 16.42 21.99H31.58C32.69 21.99 33.59 22.89 33.59 24ZM12.13 28.05C9.89998 28.05 8.07998 26.24 8.07998 24C8.07998 21.77 9.89998 19.95 12.13 19.95H22.87C21.51 17.72 19.04 16.22 16.23 16.22H12.14C7.84998 16.22 4.35999 19.7 4.35999 24C4.35999 28.29 7.83998 31.78 12.14 31.78H16.23C19.04 31.78 21.51 30.28 22.87 28.05H12.13ZM35.86 16.23H31.77C28.96 16.23 26.49 17.72 25.13 19.96H35.87C38.1 19.96 39.92 21.78 39.92 24.01C39.92 26.24 38.1 28.06 35.87 28.06H25.13C26.49 30.3 28.96 31.79 31.77 31.79H35.86C40.15 31.79 43.64 28.31 43.64 24.01C43.64 19.72 40.16 16.23 35.86 16.23Z" fill="white"/>
</svg>
