<svg width="437" height="67" viewBox="0 0 437 67" fill="none"
    xmlns="http://www.w3.org/2000/svg">
    <path d="M101.305 55.1662C94.1887 55.1662 89.3493 50.4619 89.3493 42.7267V24.2646C89.3493 17.3835 93.9425 11.5919 101.551 11.5919C105.513 11.5919 108.491 12.9102 111.234 15.49L122.423 11.1082C117.366 3.74341 110.842 0.363892 101.553 0.363892C87.7913 0.363892 77.0492 9.78341 77.0492 24.2624V29.5725H60.3346C58.2646 29.5725 56.5869 31.2481 56.5869 33.3137C56.5869 35.3793 58.2625 37.0636 60.3346 37.0636H77.0492V42.7245C77.0492 56.9747 86.3358 66.3877 101.307 66.3877C109.639 66.3877 116.157 63.7338 122.188 57.0946L110.352 52.4578C107.546 54.0528 104.451 55.164 101.305 55.164" fill="#ffffff"/>
    <path d="M44.7204 55.1662C37.6018 55.1662 32.7646 50.4619 32.7646 42.7267V24.2646C32.7646 17.3835 37.3534 11.5919 44.9622 11.5919C48.9323 11.5919 51.9021 12.9102 54.6498 15.49L65.8364 11.1082C60.7769 3.74341 54.251 0.363892 44.9622 0.363892C31.2045 0.363892 20.4623 9.78341 20.4623 24.2624V29.5725H3.74776C1.67778 29.5725 0 31.2481 0 33.3137C0 35.3793 1.6756 37.0636 3.74776 37.0636H20.4623V42.7245C20.4623 56.9747 29.7489 66.3877 44.7204 66.3877C53.0526 66.3877 59.5698 63.7338 65.6011 57.0946L53.763 52.4578C50.9565 54.0528 47.8646 55.164 44.7204 55.164" fill="#ffffff"/>
    <path d="M133.741 4.78274V29.5703H116.917C114.852 29.5703 113.169 31.248 113.169 33.3158C113.169 35.3837 114.849 37.0658 116.917 37.0658H133.741V65.6686H145.934V0.0043335L133.741 4.78491V4.78274Z" fill="#ffffff"/>
    <path d="M183.013 27.7596C176.977 25.7114 172.029 25.3432 172.029 19.1942C172.029 13.9996 176.735 11.8316 181.804 11.8316C184.93 11.8316 187.717 13.1302 190.012 15.0281L201.25 10.6245C195.812 5.31441 189.415 0.725586 181.921 0.725586C169.615 0.725586 159.838 7.00744 159.838 19.1942C159.838 31.381 166.603 34.7692 178.675 38.1444C183.978 39.9551 190.262 42.2473 190.262 47.8079C190.262 53.9591 185.915 55.8896 179.88 55.8896C175.748 55.8896 172.271 53.8087 169.438 50.8432L158.395 55.1684C163.947 62.7707 171.061 66.7559 180.241 66.7559C191.944 66.7559 202.447 60.3542 202.447 47.2022C202.447 35.2529 195.692 31.5052 183.011 27.7596" fill="#ffffff"/>
    <path d="M417.56 27.7596C411.526 25.7114 406.578 25.3432 406.578 19.1942C406.578 13.9996 411.282 11.8316 416.352 11.8316C419.479 11.8316 422.266 13.1302 424.565 15.0281L435.799 10.6245C430.365 5.31441 423.966 0.725586 416.47 0.725586C404.166 0.725586 394.389 7.00744 394.389 19.1942C394.389 31.381 401.152 34.7692 413.226 38.1444C418.534 39.9551 424.811 42.2473 424.811 47.8079C424.811 53.9591 420.468 55.8896 414.431 55.8896C410.297 55.8896 406.82 53.8087 403.998 50.8432L392.949 55.1684C398.5 62.7707 405.615 66.7559 414.801 66.7559C426.502 66.7559 437 60.3542 437 47.2022C437 35.2529 430.248 31.5052 417.564 27.7596" fill="#ffffff"/>
    <path d="M264.518 23.7787V42.8552C264.518 57.4606 254.375 66.6317 240.016 66.6317H238.804C224.206 66.6317 214.189 57.5848 214.189 42.8552V23.7787C214.189 9.77687 224.569 0 238.685 0H240.129C254.013 0 264.518 9.77905 264.518 23.7787ZM252.318 23.7787C252.318 16.6623 247.008 11.1104 240.127 11.1104H238.682C231.564 11.1104 226.496 16.6623 226.496 23.7787V42.8552C226.496 50.4641 231.328 55.408 238.802 55.408H240.014C247.376 55.408 252.318 50.5817 252.318 42.8552V23.7787Z" fill="#ffffff"/>
    <path d="M370.325 42.4935C370.325 50.3464 365.858 54.9309 358.371 54.9309C350.884 54.9309 346.071 50.22 346.071 42.4935V0L333.749 4.82851V42.4935C333.749 56.9812 343.892 66.0325 358.371 66.0325C372.85 66.0325 382.64 57.2187 382.64 42.4935V0L370.325 4.82851V42.4935Z" fill="#ffffff"/>
    <path d="M320.567 22.212V16.5315C320.567 6.15545 313.923 0.960876 302.946 0.960876H278.677V65.6664H302.946C313.925 65.6664 320.567 60.4718 320.567 50.0958V44.4218C320.567 39.2273 316.819 35.1243 312.722 33.3137C316.817 31.4964 320.567 27.3979 320.567 22.212ZM308.256 48.4049C308.256 53.2334 305.353 54.7957 301.011 54.7957H291.107V37.0592H302.338C305.713 37.0592 308.256 40.3189 308.256 44.058V48.4049ZM291.107 11.8229H301.011C305.353 11.8229 308.256 13.396 308.256 18.2246V22.5672C308.256 26.3084 305.715 29.5637 302.338 29.5637H291.107V11.8207V11.8229Z" fill="#ffffff"/>
</svg>
