<?xml version="1.0" encoding="UTF-8" standalone="no"?>
<!-- Created with Inkscape (http://www.inkscape.org/) -->
<svg xmlns:svg="http://www.w3.org/2000/svg" xmlns="http://www.w3.org/2000/svg" version="1.0" width="1057.1428" height="208.57143" id="svg3049">
  <defs id="defs3051"/>
  <g transform="translate(200,-32.362183)" id="layer1">
    <path d="M 666.20789,117.38574 L 642.14223,183.57183 L 632.96034,117.38574 L 567.56884,117.38574 L 526.14,231.30586 L 571.37255,231.30586 L 594.65099,167.29753 L 603.53858,231.30586 L 670.02632,231.30586 L 711.44045,117.38574 L 666.20789,117.38574 z" id="path75" style="fill:#42a62a;fill-opacity:1;fill-rule:nonzero;stroke:none"/>
    <path d="M 756.14549,201.32348 L 760.50835,189.33111 L 815.55552,189.33111 L 826.45165,159.35755 L 771.39713,159.35755 L 775.76735,147.36519 L 830.81452,147.36519 L 841.71065,117.38427 L 733.25699,117.38427 L 691.8355,231.30439 L 800.28917,231.30439 L 811.19266,201.32348 L 756.14549,201.32348 z" id="path79" style="fill:#42a62a;fill-opacity:1;fill-rule:nonzero;stroke:none"/>
    <path d="M 237.80671,117.38574 L 176.21892,117.38574 L 134.4075,165.35521 L 134.33392,165.35521 L 151.6971,117.38574 L 96.642579,117.38574 L 55.221094,231.84295 L 110.26826,231.84295 L 128.35981,181.8723 L 146.79716,231.84295 L 208.37759,231.84295 L 184.99615,168.45998 L 237.80671,117.38574 z" id="path83" style="fill:#42a62a;fill-opacity:1;fill-rule:nonzero;stroke:none"/>
    <path d="M 317.20577,151.5492 C 315.74903,161.53303 299.57772,164.45387 289.58654,164.07865 L 296.85553,143.55184 C 296.85553,143.55184 318.66251,141.55801 317.20577,151.5492 M 339.18931,117.38935 L 250.88725,117.38935 L 209.46576,231.84655 L 264.51293,231.84655 L 279.41878,190.6605 C 298.50356,190.6605 299.03329,193.6917 294.67778,214.94688 C 293.28725,221.73029 293.39761,227.53519 293.97148,231.96427 L 349.18049,231.96427 C 348.65077,218.54459 352.91063,204.77176 354.0878,189.70405 C 355.24289,174.91592 337.90914,173.34882 337.90914,173.34882 C 337.90914,173.34882 369.89124,168.07365 375.16641,138.82846 C 378.75676,118.87552 355.18403,117.38935 339.18931,117.38935" id="path95" style="fill:#42a62a;fill-opacity:1;fill-rule:nonzero;stroke:none"/>
    <path d="M 467.81442,178.15975 C 462.91448,188.79102 458.82383,205.41847 441.65929,205.41847 C 424.49476,205.41847 435.66311,181.6986 438.10573,173.80424 C 440.57042,165.89516 450.10545,144.09554 465.36445,144.09554 C 481.16789,144.09554 472.72909,167.53583 467.81442,178.15975 M 473.27353,113.30532 C 455.54984,113.30532 392.33609,120.11081 376.25308,174.61354 C 360.17742,229.11627 400.23045,236.75312 431.57246,236.75312 C 462.91448,236.75312 503.52666,227.75517 526.40044,183.06705 C 549.30366,138.36422 524.50227,113.30532 473.27353,113.30532" id="path99" style="fill:#42a62a;fill-opacity:1;fill-rule:nonzero;stroke:none"/>
    <path d="M -142.5161,200.33753 L -126.81567,185.07853 C -141.64794,174.1824 -151.23448,158.91604 -149.92488,141.04521 C -147.31305,117.49456 -123.33567,100.05781 -102.83829,93.509827 L -131.61261,64.742862 C -157.7751,73.461239 -184.80575,99.18229 -187.42494,127.96397 L -187.42494,142.19295 C -184.28338,167.18563 -164.95581,188.57324 -142.5161,200.33753" id="path103" style="fill:#42a62a;fill-opacity:1;fill-rule:nonzero;stroke:none"/>
    <path d="M -14.323565,64.739184 L -43.539324,93.954942 C -24.785617,99.620048 -3.4200764,114.45232 1.8109496,134.94235 C 7.0419756,155.43237 -4.7370295,173.31056 -19.988671,185.07485 L -11.704374,193.80059 C -8.6584596,197.22172 -4.5898839,200.23821 -4.5898839,200.23821 C -4.5898839,200.23821 4.6876461,195.00718 8.3442142,192.49835 C 31.45343,176.36383 43.666515,150.63543 40.613244,124.91438 C 35.382218,97.876372 11.404843,73.45756 -14.323565,64.739184" id="path107" style="fill:#42a62a;fill-opacity:1;fill-rule:nonzero;stroke:none"/>
    <path d="M -60.97902,183.78439 C -55.313914,138.43411 -47.029617,94.393436 -41.357154,47.733567 L -72.758025,78.251564 L -104.14418,47.733567 L -85.831911,183.78439 L -60.97902,183.78439 z" id="path111" style="fill:#42a62a;fill-opacity:1;fill-rule:nonzero;stroke:none"/>
    <path d="M -145.13677,203.39816 L -173.47701,230.86288 L -173.03557,231.74576 L 25.35348,231.74576 L -2.118603,203.39816 L -145.13677,203.39816 z" id="path115" style="fill:#42a62a;fill-opacity:1;fill-rule:nonzero;stroke:none"/>
  </g>
</svg>