<svg width="40" height="36" viewBox="0 0 40 36" fill="none"
    xmlns="http://www.w3.org/2000/svg">
    <path d="M10.35 9.82003V13.75H8.77002V4.28003H12.03C13.08 4.28003 13.9 4.52003 14.47 5.00003C15.05 5.48003 15.33 6.16003 15.33 7.04003C15.33 7.53003 15.2 7.95003 14.95 8.30003C14.7 8.65003 14.33 8.94003 13.84 9.15003C14.37 9.32003 14.76 9.59003 14.99 9.98003C15.23 10.36 15.34 10.83 15.34 11.4V12.19C15.34 12.47 15.37 12.74 15.44 13C15.51 13.26 15.62 13.47 15.78 13.6V13.75H14.15C13.98 13.61 13.87 13.38 13.82 13.08C13.77 12.78 13.75 12.47 13.75 12.17V11.41C13.75 10.92 13.61 10.54 13.33 10.25C13.05 9.96003 12.67 9.82003 12.19 9.82003H10.32H10.35ZM10.35 8.55003H11.94C12.57 8.55003 13.03 8.43003 13.33 8.19003C13.62 7.95003 13.77 7.58003 13.77 7.08003C13.77 6.58003 13.63 6.23003 13.34 5.96003C13.05 5.69003 12.62 5.55003 12.03 5.55003H10.35V8.55003Z" fill="white"/>
    <path d="M23.53 5.55003H20.6V13.75H19.02V5.55003H16.14V4.28003H23.53V5.55003Z" fill="white"/>
    <path d="M27.09 9.65003H26.32V13.75H24.74V4.28003H26.32V8.29003H26.94L30.02 4.28003H31.87L31.89 4.31003L28.34 8.76003L32.18 13.75H30.18L27.09 9.65003Z" fill="white"/>
    <path d="M7.7 25.75V19.89H6.63V18.72H7.7V17.9C7.7 17.12 7.91 16.53 8.33 16.11C8.75 15.69 9.35 15.48 10.11 15.48C10.26 15.48 10.42 15.49 10.57 15.52C10.73 15.54 10.9 15.58 11.1 15.62L10.94 16.84C10.85 16.82 10.76 16.81 10.65 16.79C10.54 16.78 10.43 16.77 10.31 16.77C9.97001 16.77 9.71 16.87 9.54 17.06C9.37 17.26 9.28 17.54 9.28 17.9V18.72H10.59V19.89H9.28V25.75H7.7Z" fill="white"/>
    <path d="M13.37 25.7501H11.79V15.6101H13.37V25.7501Z" fill="white"/>
    <path d="M14.85 22.1601C14.85 21.1101 15.14 20.2501 15.71 19.5801C16.28 18.9101 17.07 18.5801 18.07 18.5801C19.07 18.5801 19.87 18.9101 20.45 19.5801C21.02 20.2501 21.31 21.1101 21.31 22.1601V22.3001C21.31 23.3601 21.02 24.2201 20.45 24.8801C19.88 25.5501 19.09 25.8801 18.09 25.8801C17.09 25.8801 16.29 25.5501 15.72 24.8801C15.15 24.2101 14.86 23.3501 14.86 22.3001V22.1601H14.85ZM16.43 22.3001C16.43 22.9901 16.56 23.5501 16.83 23.9801C17.1 24.4101 17.51 24.6201 18.08 24.6201C18.65 24.6201 19.04 24.4001 19.32 23.9701C19.59 23.5401 19.73 22.9801 19.73 22.3001V22.1601C19.73 21.4901 19.59 20.9301 19.32 20.5001C19.04 20.0601 18.63 19.8501 18.07 19.8501C17.51 19.8501 17.11 20.0701 16.84 20.5001C16.57 20.9401 16.43 21.4901 16.43 22.1601V22.3001Z" fill="white"/>
    <path d="M26.92 25.7501C26.86 25.5701 26.82 25.4001 26.78 25.2301C26.74 25.0601 26.72 24.8901 26.71 24.7201C26.5 25.0501 26.21 25.3301 25.86 25.5501C25.5 25.7701 25.11 25.8901 24.67 25.8901C23.94 25.8901 23.38 25.7001 22.98 25.3201C22.59 24.9401 22.39 24.4201 22.39 23.7701C22.39 23.1201 22.66 22.5601 23.2 22.1801C23.74 21.8001 24.49 21.6101 25.47 21.6101H26.7V20.9901C26.7 20.6201 26.59 20.3301 26.38 20.1301C26.17 19.9201 25.85 19.8201 25.45 19.8201C25.09 19.8201 24.8 19.9101 24.59 20.0801C24.38 20.2501 24.27 20.4701 24.27 20.7501H22.75V20.7201C22.72 20.1701 22.97 19.6701 23.49 19.2401C24.02 18.8101 24.7 18.6001 25.55 18.6001C26.4 18.6001 27.03 18.8101 27.53 19.2201C28.03 19.6401 28.28 20.2301 28.28 21.0101V24.1401C28.28 24.4301 28.3 24.7101 28.34 24.9801C28.38 25.2501 28.44 25.5101 28.53 25.7601H26.93L26.92 25.7501ZM24.99 24.6201C25.38 24.6201 25.74 24.5201 26.06 24.3201C26.38 24.1201 26.59 23.8901 26.69 23.6401V22.6001H25.43C24.97 22.6001 24.61 22.7101 24.35 22.9401C24.09 23.1701 23.96 23.4401 23.96 23.7401C23.96 24.0101 24.05 24.2201 24.22 24.3801C24.4 24.5401 24.65 24.6201 24.98 24.6201H24.99Z" fill="white"/>
    <path d="M31.95 17V18.71H33.21V19.88H31.95V23.77C31.95 24.06 32.01 24.27 32.14 24.39C32.27 24.51 32.43 24.58 32.64 24.58C32.73 24.58 32.81 24.58 32.89 24.56C32.97 24.55 33.05 24.52 33.12 24.5L33.29 25.66C33.16 25.73 33 25.79 32.81 25.83C32.63 25.87 32.43 25.89 32.23 25.89C31.65 25.89 31.19 25.72 30.86 25.38C30.53 25.04 30.36 24.5 30.36 23.78V19.89H29.29V18.72H30.36V17.01H31.93L31.95 17Z" fill="white"/>
    <circle cx="8.5" cy="32.5" r="3.5" fill="#01DF00"/>
    <circle cx="19.5" cy="32.5" r="3.5" fill="#01DF00"/>
    <path d="M34 32.5C34 34.433 32.433 36 30.5 36C28.567 36 27 34.433 27 32.5C27 30.567 28.567 29 30.5 29C32.433 29 34 30.567 34 32.5Z" fill="#01DF00"/>
</svg>
