<svg width="64" height="64" viewBox="0 0 64 64" fill="none"
    xmlns="http://www.w3.org/2000/svg">
    <path d="M34 39V46H39L32.03 53L25 46H30V39H34Z" fill="url(#paint0_linear_10_608)"/>
    <g opacity="0.2">
        <path d="M35 47H38L39 46H35V47Z" fill="white"/>
        <path d="M31 47V40H34V39H30V46H25L26 47H31Z" fill="white"/>
    </g>
    <path d="M22 37.0001H22.05L25 34.0501V32.0001H27V32.0501L36.02 23.0301C35.63 22.7901 35 22.2901 35 22.0001V18.0001H37V21.0001C37 21.1801 37.18 21.4401 37.4 21.6501L40 19.0501V15.0001C40 14.6601 39.34 14.0001 39 14.0001H38C37.66 14.0001 37 14.6601 37 15.0001V17.0001H35V14.0001C35 13.6601 34.32 13.1101 34 13.0001L32.58 12.0801C32.26 11.9701 31.74 11.9701 31.42 12.0801L30 13.0001C29.68 13.1101 28.94 13.1601 29.02 14.0601V17.1201L27 17.0001V15.0001C27 14.6601 26.34 14.0001 26 14.0001H25C24.66 14.0001 24 14.6601 24 15.0001V21.0001C24 21.3401 24.66 22.0001 25 22.0001H26C26.34 22.0001 27 21.3401 27 21.0001V18.0001H29V22.0001C29 22.3401 28.08 23.0001 27.78 23.1401L27.67 23.1901C27.36 23.3301 27 23.6701 27 24.0101V30.0101H25V27.0101C25 26.3401 24.67 25.0101 24 25.0101H22C21.33 25.0101 21 26.3401 21 27.0101V35.1201C21 35.7901 21.33 37.0101 22 37.0101V37.0001Z" fill="url(#paint1_linear_10_608)"/>
    <path d="M39 29.9501V30.0001H38.95L33.95 35.0001H36C36.34 35.0001 37 34.3401 37 34.0001V32.0001H39V35.0001C39 35.6701 39.33 37.0001 40 37.0001H42C42.67 37.0001 43 35.7801 43 35.1101V27.0001C43 26.7501 42.95 26.4101 42.86 26.0901L39 29.9501Z" fill="url(#paint2_linear_10_608)"/>
    <path d="M15.5001 50.0001C15.1201 50.0001 14.7301 49.8501 14.4401 49.5601C13.8501 48.9701 13.8501 48.0201 14.4401 47.4401L49.4401 12.4401C50.0301 11.8501 50.9801 11.8501 51.5601 12.4401C52.1501 13.0301 52.1501 13.9801 51.5601 14.5601L16.5601 49.5601C16.2701 49.8501 15.8801 50.0001 15.5001 50.0001Z" fill="url(#paint3_linear_10_608)"/>
    <defs>
        <linearGradient id="paint0_linear_10_608" x1="39" y1="46" x2="25" y2="46" gradientUnits="userSpaceOnUse">
            <stop stop-color="#9D2026"/>
            <stop offset="1" stop-color="#CC2026"/>
        </linearGradient>
        <linearGradient id="paint1_linear_10_608" x1="30.5" y1="17.0301" x2="30.5" y2="32.4501" gradientUnits="userSpaceOnUse">
            <stop offset="0.32" stop-color="#F7F6F2"/>
            <stop offset="1" stop-color="#BFC0C1"/>
        </linearGradient>
        <linearGradient id="paint2_linear_10_608" x1="38.48" y1="28.2801" x2="38.48" y2="35.0101" gradientUnits="userSpaceOnUse">
            <stop offset="0.32" stop-color="#F7F6F2"/>
            <stop offset="1" stop-color="#BFC0C1"/>
        </linearGradient>
        <linearGradient id="paint3_linear_10_608" x1="33.0001" y1="50.0001" x2="33.0001" y2="12.0001" gradientUnits="userSpaceOnUse">
            <stop stop-color="#9D2026"/>
            <stop offset="1" stop-color="#CC2026"/>
        </linearGradient>
    </defs>
</svg>
