<svg width="40" height="40" viewBox="0 0 40 40" fill="none"
    xmlns="http://www.w3.org/2000/svg">
    <g clip-path="url(#clip0_7_815)">
        <path d="M17.5 29.5C17.5 28.12 18.62 27 20 27C21.38 27 22.5 28.12 22.5 29.5C22.5 30.88 21.38 32 20 32C18.62 32 17.5 30.88 17.5 29.5ZM20 21.15C17.45 21.15 15.14 22.15 13.43 23.78L15.49 25.94C16.67 24.82 18.26 24.13 20.01 24.13C21.76 24.13 23.35 24.82 24.53 25.94L26.59 23.78C24.88 22.15 22.56 21.15 20.01 21.15H20ZM9.30999 19.36L11.37 21.52C13.62 19.38 16.66 18.06 20 18.06C23.34 18.06 26.38 19.38 28.63 21.52L30.69 19.36C27.91 16.71 24.15 15.09 20.01 15.09C15.87 15.09 12.11 16.72 9.31999 19.36H9.30999ZM4.99999 15.02L7.05999 17.19C10.43 13.98 14.99 12.01 20 12.01C25.01 12.01 29.56 13.98 32.93 17.19L34.99 15.02C31.09 11.31 25.81 9.02002 19.99 9.02002C14.17 9.02002 8.89999 11.3 4.98999 15.02H4.99999Z" fill="white"/>
    </g>
    <defs>
        <clipPath id="clip0_7_815">
            <rect width="40" height="40" fill="white"/>
        </clipPath>
    </defs>
</svg>
